<svg width="19" height="24" viewBox="0 0 19 24" fill="none" xmlns="http://www.w3.org/2000/svg">
<path d="M3.6369 7.17419C3.52557 8.36169 3.44744 10.4633 4.14862 11.3578C4.14862 11.3578 3.81854 9.04919 6.77752 6.15271C7.96893 4.98669 8.24432 3.40075 7.8283 2.2113C7.59198 1.53747 7.16034 0.980831 6.78534 0.592159C6.56659 0.363643 6.73455 -0.01331 7.05291 0.000361829C8.97869 0.0862993 12.0998 0.621455 13.426 3.94958C14.008 5.41052 14.051 6.92028 13.7736 8.45544C13.5978 9.43591 12.9728 11.6156 14.3986 11.8832C15.4162 12.0746 15.9084 11.266 16.1291 10.684C16.2209 10.4418 16.5392 10.3812 16.7111 10.5746C18.4299 12.5297 18.5764 14.8324 18.2209 16.8148C17.5334 20.6468 13.6525 23.4359 9.79705 23.4359C4.98065 23.4359 1.14666 20.68 0.152523 15.6918C-0.247868 13.6781 -0.0447426 9.69372 3.06073 6.88122C3.29119 6.67028 3.66815 6.85778 3.6369 7.17419Z" fill="url(#paint0_radial_1_268)"/>
<defs>
<radialGradient id="paint0_radial_1_268" cx="0" cy="0" r="1" gradientTransform="matrix(-13.7865 -0.0598335 -0.0982979 22.6209 8.8431 23.4966)" gradientUnits="userSpaceOnUse">
<stop offset="0.314" stop-color="#FF9800"/>
<stop offset="0.662" stop-color="#FF6D00"/>
<stop offset="0.972" stop-color="#F44336"/>
</radialGradient>
</defs>
</svg>
